<?xml version="1.0" encoding="utf-8"?>
<!-- Generator: Adobe Illustrator 14.0.0, SVG Export Plug-In  -->
<!DOCTYPE svg PUBLIC "-//W3C//DTD SVG 1.0//EN" "http://www.w3.org/TR/2001/REC-SVG-20010904/DTD/svg10.dtd" [
	<!ENTITY ns_flows "http://ns.adobe.com/Flows/1.0/">
]>
<svg version="1.0"
	 xmlns="http://www.w3.org/2000/svg" xmlns:xlink="http://www.w3.org/1999/xlink" xmlns:a="http://ns.adobe.com/AdobeSVGViewerExtensions/3.0/"
	 x="0px" y="0px" width="100px" height="100px" viewBox="-12.545 -12.978 100 100" enable-background="new -12.545 -12.978 100 100"
	 xml:space="preserve">
<defs>
</defs>
<path fill="#FFFFFF" d="M47.647,27.889c-1.998,2.333-4.387,3.468-7.303,3.468c-1.854,0-3.439-0.383-4.848-1.171
	c-1.374-0.769-2.415-1.809-3.183-3.183c-0.788-1.41-1.171-2.996-1.171-4.848c0-1.853,0.383-3.438,1.172-4.849
	c0.768-1.374,1.808-2.414,3.182-3.182c1.411-0.789,2.997-1.172,4.849-1.172c2.922,0,5.314,1.121,7.314,3.428l1.882,2.171l9.62-8.882
	l-1.695-2.034c-2.058-2.466-4.627-4.381-7.636-5.691C46.868,0.654,43.532,0,39.916,0c-4.299,0-8.245,0.949-11.727,2.82
	c-3.518,1.893-6.326,4.558-8.345,7.923c-2.021,3.367-3.046,7.207-3.046,11.412c0,4.204,1.025,8.044,3.046,11.412
	c2.02,3.364,4.827,6.029,8.346,7.922c3.481,1.871,7.409,2.82,11.673,2.82c3.612,0,6.954-0.653,9.936-1.941
	c3.035-1.314,5.62-3.254,7.681-5.765l1.666-2.031l-9.618-8.88L47.647,27.889z"/>
<path fill="#FFFFFF" d="M3.205,61.518c-0.963-0.519-1.721-1.236-2.272-2.155s-0.827-1.957-0.827-3.116
	c0-1.158,0.276-2.196,0.827-3.115s1.309-1.638,2.272-2.155c0.963-0.519,2.047-0.777,3.25-0.777c1.014,0,1.93,0.179,2.749,0.535
	c0.818,0.356,1.506,0.868,2.063,1.537l-1.737,1.604c-0.791-0.913-1.771-1.37-2.94-1.37c-0.724,0-1.37,0.159-1.938,0.477
	s-1.011,0.76-1.328,1.328c-0.317,0.567-0.476,1.214-0.476,1.938c0,0.725,0.159,1.37,0.476,1.938c0.317,0.567,0.76,1.011,1.328,1.328
	s1.214,0.476,1.938,0.476c1.169,0,2.149-0.462,2.94-1.387l1.737,1.604c-0.557,0.68-1.248,1.197-2.071,1.554
	c-0.825,0.356-1.744,0.534-2.757,0.534C5.246,62.294,4.168,62.035,3.205,61.518z"/>
<path fill="#FFFFFF" d="M20.538,62.094l-2.255-3.258h-0.134h-2.355v3.258h-2.707V50.399h5.062c1.036,0,1.935,0.173,2.698,0.518
	c0.763,0.346,1.351,0.835,1.763,1.47c0.412,0.635,0.618,1.387,0.618,2.256s-0.209,1.618-0.626,2.247
	c-0.418,0.629-1.011,1.111-1.779,1.445l2.623,3.759H20.538z M19.853,53.131c-0.423-0.352-1.042-0.526-1.854-0.526h-2.205v4.076
	h2.205c0.813,0,1.431-0.178,1.854-0.534s0.635-0.857,0.635-1.504C20.487,53.985,20.276,53.481,19.853,53.131z"/>
<path fill="#FFFFFF" d="M33.067,59.588h-5.43l-1.036,2.506h-2.773l5.212-11.694h2.673l5.229,11.694h-2.84L33.067,59.588z
	 M32.215,57.533l-1.854-4.478l-1.854,4.478H32.215z"/>
<path fill="#FFFFFF" d="M38.163,50.399h5.313c1.27,0,2.392,0.242,3.366,0.727s1.732,1.167,2.272,2.046
	c0.54,0.881,0.811,1.905,0.811,3.074c0,1.17-0.271,2.194-0.811,3.074s-1.298,1.563-2.272,2.047s-2.097,0.727-3.366,0.727h-5.313
	V50.399z M43.342,59.872c1.17,0,2.103-0.326,2.799-0.978s1.044-1.534,1.044-2.648c0-1.113-0.348-1.996-1.044-2.647
	s-1.629-0.978-2.799-0.978h-2.473v7.251H43.342z"/>
<path fill="#FFFFFF" d="M54.344,61.509c-0.975-0.523-1.737-1.244-2.289-2.163s-0.827-1.952-0.827-3.1
	c0-1.146,0.275-2.18,0.827-3.099s1.314-1.64,2.289-2.164c0.975-0.523,2.068-0.785,3.282-0.785s2.306,0.262,3.275,0.785
	c0.969,0.524,1.731,1.245,2.288,2.164c0.558,0.919,0.836,1.952,0.836,3.099c0,1.147-0.278,2.181-0.836,3.1
	c-0.557,0.919-1.319,1.64-2.288,2.163c-0.97,0.523-2.062,0.785-3.275,0.785S55.318,62.032,54.344,61.509z M59.498,59.513
	c0.557-0.317,0.993-0.761,1.311-1.328c0.318-0.568,0.477-1.214,0.477-1.938c0-0.724-0.158-1.37-0.477-1.938
	c-0.317-0.568-0.754-1.011-1.311-1.328c-0.558-0.317-1.181-0.477-1.872-0.477c-0.69,0-1.313,0.159-1.871,0.477
	c-0.557,0.317-0.994,0.76-1.312,1.328c-0.317,0.567-0.476,1.214-0.476,1.938c0,0.725,0.158,1.37,0.476,1.938
	c0.317,0.567,0.755,1.011,1.312,1.328c0.558,0.317,1.181,0.476,1.871,0.476C58.317,59.988,58.94,59.83,59.498,59.513z"/>
<path fill="#FFFFFF" d="M67.225,61.918c-0.863-0.25-1.557-0.576-2.08-0.977l0.919-2.039c0.501,0.368,1.097,0.663,1.787,0.886
	c0.691,0.223,1.382,0.334,2.072,0.334c0.769,0,1.336-0.114,1.704-0.342c0.367-0.229,0.551-0.532,0.551-0.911
	c0-0.278-0.108-0.51-0.325-0.693c-0.218-0.184-0.496-0.331-0.836-0.442s-0.799-0.234-1.378-0.367
	c-0.892-0.212-1.62-0.424-2.188-0.636c-0.568-0.211-1.056-0.551-1.462-1.019c-0.407-0.468-0.609-1.092-0.609-1.871
	c0-0.68,0.184-1.295,0.551-1.847c0.367-0.551,0.922-0.988,1.662-1.312c0.741-0.322,1.646-0.484,2.715-0.484
	c0.746,0,1.476,0.09,2.188,0.268c0.713,0.179,1.337,0.435,1.871,0.769l-0.835,2.055c-1.08-0.612-2.161-0.919-3.241-0.919
	c-0.758,0-1.317,0.123-1.679,0.368c-0.362,0.245-0.543,0.567-0.543,0.969c0,0.4,0.209,0.699,0.626,0.894
	c0.418,0.195,1.056,0.388,1.913,0.576c0.892,0.212,1.621,0.424,2.188,0.635c0.568,0.212,1.056,0.546,1.462,1.003
	s0.61,1.075,0.61,1.854c0,0.668-0.187,1.278-0.56,1.829c-0.374,0.552-0.934,0.989-1.68,1.312c-0.746,0.323-1.653,0.484-2.723,0.484
	C68.981,62.294,68.088,62.169,67.225,61.918z"/>
<path fill="#FFFFFF" d="M5.803,63.575v8.265H5.257v-1.37c-0.23,0.453-0.553,0.802-0.969,1.047c-0.416,0.245-0.888,0.368-1.415,0.368
	c-0.542,0-1.032-0.127-1.47-0.379c-0.438-0.253-0.782-0.602-1.03-1.047C0.124,70.014,0,69.505,0,68.933
	c0-0.571,0.124-1.082,0.373-1.531c0.249-0.449,0.592-0.798,1.03-1.047c0.438-0.249,0.928-0.373,1.47-0.373
	c0.52,0,0.985,0.122,1.397,0.367s0.737,0.587,0.975,1.025v-3.799H5.803z M4.104,71.071c0.353-0.208,0.631-0.497,0.835-0.869
	c0.204-0.371,0.306-0.794,0.306-1.27c0-0.475-0.102-0.898-0.306-1.27s-0.483-0.661-0.835-0.869
	c-0.353-0.207-0.751-0.312-1.197-0.312c-0.445,0-0.845,0.104-1.197,0.312c-0.353,0.208-0.631,0.498-0.835,0.869
	s-0.306,0.795-0.306,1.27c0,0.476,0.102,0.898,0.306,1.27c0.204,0.372,0.483,0.661,0.835,0.869s0.752,0.312,1.197,0.312
	C3.353,71.383,3.751,71.279,4.104,71.071z"/>
<path fill="#FFFFFF" d="M8.108,64.483c-0.089-0.085-0.134-0.191-0.134-0.317s0.044-0.234,0.134-0.323
	c0.089-0.089,0.196-0.134,0.323-0.134s0.234,0.043,0.323,0.128c0.089,0.086,0.133,0.191,0.133,0.317
	c0,0.127-0.044,0.234-0.133,0.323c-0.089,0.089-0.197,0.134-0.323,0.134S8.197,64.568,8.108,64.483z M8.153,66.026h0.557v5.813
	H8.153V66.026z"/>
<path fill="#FFFFFF" d="M14.679,66.532c0.386,0.368,0.579,0.908,0.579,1.621v3.687h-0.535v-1.036
	c-0.186,0.342-0.457,0.607-0.813,0.797s-0.783,0.284-1.281,0.284c-0.646,0-1.157-0.152-1.531-0.457
	c-0.375-0.305-0.563-0.705-0.563-1.203c0-0.482,0.172-0.874,0.518-1.175c0.346-0.301,0.897-0.451,1.654-0.451h1.994v-0.468
	c0-0.542-0.147-0.954-0.44-1.236c-0.293-0.282-0.722-0.423-1.287-0.423c-0.386,0-0.755,0.066-1.108,0.2
	c-0.353,0.134-0.652,0.312-0.897,0.534l-0.278-0.4c0.29-0.26,0.639-0.462,1.047-0.607c0.408-0.145,0.835-0.217,1.281-0.217
	C13.74,65.981,14.293,66.165,14.679,66.532z M13.938,71.094c0.338-0.223,0.592-0.546,0.763-0.969v-1.092h-1.982
	c-0.572,0-0.986,0.104-1.242,0.312c-0.256,0.208-0.384,0.494-0.384,0.857c0,0.379,0.141,0.678,0.423,0.897
	c0.282,0.219,0.68,0.328,1.192,0.328C13.19,71.428,13.601,71.316,13.938,71.094z"/>
<path fill="#FFFFFF" d="M17.553,63.575h0.557v8.265h-0.557V63.575z"/>
<path fill="#FFFFFF" d="M21.245,71.506c-0.442-0.253-0.789-0.604-1.042-1.053s-0.378-0.956-0.378-1.521
	c0-0.563,0.126-1.07,0.378-1.521c0.252-0.449,0.6-0.8,1.042-1.052c0.442-0.253,0.938-0.379,1.487-0.379s1.045,0.126,1.487,0.379
	c0.442,0.252,0.789,0.603,1.042,1.052c0.252,0.45,0.379,0.957,0.379,1.521c0,0.564-0.126,1.071-0.379,1.521s-0.6,0.8-1.042,1.053
	c-0.442,0.252-0.938,0.379-1.487,0.379S21.687,71.758,21.245,71.506z M23.929,71.071c0.353-0.208,0.631-0.497,0.835-0.869
	c0.204-0.371,0.306-0.794,0.306-1.27c0-0.475-0.102-0.898-0.306-1.27s-0.483-0.661-0.835-0.869
	c-0.353-0.207-0.751-0.312-1.197-0.312c-0.445,0-0.845,0.104-1.197,0.312c-0.353,0.208-0.631,0.498-0.835,0.869
	s-0.306,0.795-0.306,1.27c0,0.476,0.102,0.898,0.306,1.27c0.204,0.372,0.483,0.661,0.835,0.869s0.752,0.312,1.197,0.312
	C23.177,71.383,23.576,71.279,23.929,71.071z"/>
<path fill="#FFFFFF" d="M32.6,66.026v5.189c0,0.966-0.234,1.679-0.702,2.139s-1.173,0.69-2.116,0.69
	c-0.535,0-1.04-0.082-1.515-0.245c-0.476-0.163-0.858-0.39-1.147-0.679l0.301-0.424c0.29,0.268,0.639,0.476,1.047,0.624
	s0.843,0.223,1.303,0.223c0.772,0,1.344-0.184,1.715-0.552c0.371-0.367,0.557-0.938,0.557-1.709v-0.98
	c-0.238,0.423-0.568,0.75-0.991,0.98s-0.898,0.345-1.426,0.345c-0.542,0-1.034-0.12-1.476-0.361s-0.789-0.577-1.042-1.009
	c-0.252-0.43-0.378-0.917-0.378-1.459s0.126-1.028,0.378-1.459s0.6-0.765,1.042-1.002s0.934-0.356,1.476-0.356
	c0.535,0,1.018,0.119,1.448,0.356s0.761,0.571,0.991,1.002v-1.313H32.6z M30.896,70.832c0.364-0.197,0.647-0.472,0.852-0.824
	c0.204-0.353,0.306-0.756,0.306-1.209c0-0.452-0.102-0.854-0.306-1.202c-0.205-0.35-0.488-0.622-0.852-0.819
	c-0.364-0.196-0.772-0.295-1.225-0.295c-0.453,0-0.86,0.099-1.22,0.295c-0.36,0.197-0.643,0.47-0.847,0.819
	c-0.204,0.349-0.306,0.75-0.306,1.202c0,0.453,0.102,0.856,0.306,1.209s0.486,0.627,0.847,0.824c0.36,0.196,0.767,0.295,1.22,0.295
	C30.124,71.127,30.532,71.028,30.896,70.832z"/>
<path fill="#FFFFFF" d="M42.735,69.066h-5.001c0.015,0.453,0.13,0.856,0.346,1.209c0.215,0.353,0.506,0.625,0.875,0.818
	c0.367,0.193,0.781,0.289,1.241,0.289c0.379,0,0.729-0.068,1.053-0.206c0.323-0.137,0.592-0.339,0.808-0.606l0.323,0.367
	c-0.253,0.305-0.57,0.539-0.952,0.702c-0.383,0.163-0.797,0.245-1.242,0.245c-0.579,0-1.096-0.127-1.548-0.379
	c-0.454-0.253-0.808-0.602-1.064-1.047c-0.256-0.445-0.384-0.954-0.384-1.526c0-0.563,0.121-1.07,0.362-1.521
	c0.241-0.449,0.574-0.8,0.997-1.052c0.424-0.253,0.898-0.379,1.426-0.379s1.001,0.124,1.42,0.373c0.42,0.249,0.75,0.596,0.991,1.041
	c0.241,0.446,0.362,0.951,0.362,1.515L42.735,69.066z M38.87,66.744c-0.327,0.183-0.588,0.438-0.785,0.769
	c-0.197,0.331-0.31,0.704-0.34,1.119H42.2c-0.022-0.415-0.134-0.787-0.334-1.113c-0.2-0.327-0.464-0.583-0.791-0.769
	c-0.326-0.186-0.694-0.278-1.103-0.278S39.197,66.563,38.87,66.744z"/>
<path fill="#FFFFFF" d="M49.039,66.616c0.423,0.423,0.635,1.032,0.635,1.826v3.397h-0.557v-3.353c0-0.653-0.165-1.15-0.496-1.492
	c-0.33-0.342-0.792-0.513-1.387-0.513c-0.683,0-1.221,0.204-1.614,0.612c-0.394,0.409-0.591,0.958-0.591,1.648v3.097h-0.557v-5.813
	h0.534v1.258c0.201-0.408,0.5-0.728,0.897-0.958c0.396-0.229,0.866-0.345,1.408-0.345C48.04,65.981,48.616,66.193,49.039,66.616z"/>
<path fill="#FFFFFF" d="M57.214,66.026v5.189c0,0.966-0.233,1.679-0.701,2.139s-1.174,0.69-2.116,0.69
	c-0.535,0-1.04-0.082-1.515-0.245c-0.476-0.163-0.857-0.39-1.147-0.679l0.301-0.424c0.29,0.268,0.639,0.476,1.047,0.624
	s0.843,0.223,1.303,0.223c0.772,0,1.345-0.184,1.716-0.552c0.371-0.367,0.557-0.938,0.557-1.709v-0.98
	c-0.237,0.423-0.568,0.75-0.991,0.98s-0.898,0.345-1.426,0.345c-0.542,0-1.034-0.12-1.476-0.361s-0.789-0.577-1.041-1.009
	c-0.253-0.43-0.379-0.917-0.379-1.459s0.126-1.028,0.379-1.459c0.252-0.431,0.6-0.765,1.041-1.002s0.934-0.356,1.476-0.356
	c0.535,0,1.018,0.119,1.448,0.356s0.761,0.571,0.991,1.002v-1.313H57.214z M55.51,70.832c0.364-0.197,0.648-0.472,0.853-0.824
	s0.307-0.756,0.307-1.209c0-0.452-0.103-0.854-0.307-1.202c-0.204-0.35-0.488-0.622-0.853-0.819
	c-0.363-0.196-0.771-0.295-1.225-0.295s-0.859,0.099-1.22,0.295c-0.36,0.197-0.643,0.47-0.847,0.819
	c-0.204,0.349-0.306,0.75-0.306,1.202c0,0.453,0.102,0.856,0.306,1.209s0.486,0.627,0.847,0.824c0.36,0.196,0.767,0.295,1.22,0.295
	S55.146,71.028,55.51,70.832z"/>
<path fill="#FFFFFF" d="M59.53,64.483c-0.089-0.085-0.134-0.191-0.134-0.317s0.045-0.234,0.134-0.323
	c0.09-0.089,0.197-0.134,0.323-0.134s0.234,0.043,0.323,0.128c0.089,0.086,0.134,0.191,0.134,0.317c0,0.127-0.045,0.234-0.134,0.323
	s-0.197,0.134-0.323,0.134S59.62,64.568,59.53,64.483z M59.575,66.026h0.557v5.813h-0.557V66.026z"/>
<path fill="#FFFFFF" d="M67.048,66.616c0.423,0.423,0.635,1.032,0.635,1.826v3.397h-0.557v-3.353c0-0.653-0.165-1.15-0.496-1.492
	c-0.33-0.342-0.792-0.513-1.387-0.513c-0.683,0-1.221,0.204-1.614,0.612c-0.394,0.409-0.591,0.958-0.591,1.648v3.097h-0.557v-5.813
	h0.534v1.258c0.201-0.408,0.5-0.728,0.897-0.958c0.396-0.229,0.866-0.345,1.408-0.345C66.049,65.981,66.625,66.193,67.048,66.616z"
	/>
<path fill="#FFFFFF" d="M74.9,69.066h-5.001c0.015,0.453,0.13,0.856,0.345,1.209c0.216,0.353,0.507,0.625,0.875,0.818
	c0.367,0.193,0.781,0.289,1.241,0.289c0.379,0,0.729-0.068,1.053-0.206c0.323-0.137,0.592-0.339,0.808-0.606l0.323,0.367
	c-0.253,0.305-0.57,0.539-0.952,0.702c-0.383,0.163-0.797,0.245-1.242,0.245c-0.579,0-1.096-0.127-1.548-0.379
	c-0.453-0.253-0.808-0.602-1.064-1.047c-0.256-0.445-0.384-0.954-0.384-1.526c0-0.563,0.12-1.07,0.362-1.521
	c0.241-0.449,0.573-0.8,0.996-1.052c0.424-0.253,0.898-0.379,1.426-0.379s1.001,0.124,1.42,0.373c0.42,0.249,0.75,0.596,0.991,1.041
	c0.241,0.446,0.362,0.951,0.362,1.515L74.9,69.066z M71.035,66.744c-0.327,0.183-0.589,0.438-0.785,0.769
	c-0.197,0.331-0.311,0.704-0.34,1.119h4.455c-0.022-0.415-0.134-0.787-0.334-1.113c-0.2-0.327-0.464-0.583-0.791-0.769
	c-0.326-0.186-0.694-0.278-1.103-0.278S71.362,66.563,71.035,66.744z"/>
</svg>
